<mxfile host="app.diagrams.net" modified="2021-08-25T07:27:00.602Z" agent="5.0 (Windows NT 10.0; Win64; x64) AppleWebKit/537.36 (KHTML, like Gecko) Chrome/92.0.4515.159 Safari/537.36" etag="qLLyBOGzw3KYOfMLo9ld" version="14.9.8" type="github">
  <diagram id="XE1oJLSHXqc6yMs_ScOC" name="ReactRefresh-RecipeApp">
    <mxGraphModel dx="1837" dy="987" grid="1" gridSize="10" guides="1" tooltips="1" connect="1" arrows="1" fold="1" page="1" pageScale="1" pageWidth="850" pageHeight="1100" math="0" shadow="0">
      <root>
        <mxCell id="0" />
        <mxCell id="1" parent="0" />
        <mxCell id="HHy9b7S9J5ZC9o9ud-Px-1" value="&lt;font style=&quot;font-size: 30px&quot;&gt;App&lt;/font&gt;" style="rounded=0;whiteSpace=wrap;html=1;fillColor=#dae8fc;strokeColor=#6c8ebf;" vertex="1" parent="1">
          <mxGeometry x="295" y="260" width="215" height="70" as="geometry" />
        </mxCell>
        <mxCell id="HHy9b7S9J5ZC9o9ud-Px-2" value="&lt;div style=&quot;color: rgb(255 , 255 , 255) ; background-color: rgb(25 , 53 , 73) ; font-family: &amp;#34;cascadia code&amp;#34; , &amp;#34;consolas&amp;#34; , &amp;#34;courier new&amp;#34; , monospace , &amp;#34;consolas&amp;#34; , &amp;#34;courier new&amp;#34; , monospace ; font-size: 25px ; line-height: 34px&quot;&gt;&lt;span style=&quot;color: #80ffbb&quot;&gt;RecipeList&lt;/span&gt;&lt;/div&gt;" style="rounded=0;whiteSpace=wrap;html=1;fillColor=#ffe6cc;strokeColor=#d79b00;" vertex="1" parent="1">
          <mxGeometry x="170" y="380" width="180" height="70" as="geometry" />
        </mxCell>
        <mxCell id="HHy9b7S9J5ZC9o9ud-Px-3" value="&lt;div style=&quot;color: rgb(255 , 255 , 255) ; background-color: rgb(25 , 53 , 73) ; font-family: &amp;#34;cascadia code&amp;#34; , &amp;#34;consolas&amp;#34; , &amp;#34;courier new&amp;#34; , monospace , &amp;#34;consolas&amp;#34; , &amp;#34;courier new&amp;#34; , monospace ; font-size: 25px ; line-height: 34px&quot;&gt;&lt;span style=&quot;color: #80ffbb&quot;&gt;RecipeEdit&lt;/span&gt;&lt;/div&gt;" style="rounded=0;whiteSpace=wrap;html=1;fillColor=#ffe6cc;strokeColor=#d79b00;" vertex="1" parent="1">
          <mxGeometry x="480" y="380" width="190" height="70" as="geometry" />
        </mxCell>
        <mxCell id="HHy9b7S9J5ZC9o9ud-Px-4" value="&lt;div style=&quot;color: rgb(255 , 255 , 255) ; background-color: rgb(25 , 53 , 73) ; font-family: &amp;#34;cascadia code&amp;#34; , &amp;#34;consolas&amp;#34; , &amp;#34;courier new&amp;#34; , monospace , &amp;#34;consolas&amp;#34; , &amp;#34;courier new&amp;#34; , monospace ; font-size: 25px ; line-height: 34px&quot;&gt;&lt;div style=&quot;font-family: &amp;#34;cascadia code&amp;#34; , &amp;#34;consolas&amp;#34; , &amp;#34;courier new&amp;#34; , monospace , &amp;#34;consolas&amp;#34; , &amp;#34;courier new&amp;#34; , monospace ; line-height: 34px&quot;&gt;&lt;span style=&quot;color: #80ffbb&quot;&gt;Recipe&lt;/span&gt;&lt;/div&gt;&lt;/div&gt;" style="rounded=0;whiteSpace=wrap;html=1;fillColor=#ffe6cc;strokeColor=#d79b00;" vertex="1" parent="1">
          <mxGeometry x="170" y="490" width="180" height="70" as="geometry" />
        </mxCell>
        <mxCell id="HHy9b7S9J5ZC9o9ud-Px-5" value="&lt;div style=&quot;color: rgb(255 , 255 , 255) ; background-color: rgb(25 , 53 , 73) ; font-family: &amp;#34;cascadia code&amp;#34; , &amp;#34;consolas&amp;#34; , &amp;#34;courier new&amp;#34; , monospace , &amp;#34;consolas&amp;#34; , &amp;#34;courier new&amp;#34; , monospace ; font-size: 25px ; line-height: 34px&quot;&gt;&lt;div style=&quot;font-family: &amp;#34;cascadia code&amp;#34; , &amp;#34;consolas&amp;#34; , &amp;#34;courier new&amp;#34; , monospace , &amp;#34;consolas&amp;#34; , &amp;#34;courier new&amp;#34; , monospace ; line-height: 34px&quot;&gt;&lt;div style=&quot;font-family: &amp;#34;cascadia code&amp;#34; , &amp;#34;consolas&amp;#34; , &amp;#34;courier new&amp;#34; , monospace , &amp;#34;consolas&amp;#34; , &amp;#34;courier new&amp;#34; , monospace ; line-height: 34px&quot;&gt;&lt;span style=&quot;color: #80ffbb&quot;&gt;IngridentEdit&lt;/span&gt;&lt;/div&gt;&lt;/div&gt;&lt;/div&gt;" style="rounded=0;whiteSpace=wrap;html=1;fillColor=#ffe6cc;strokeColor=#d79b00;" vertex="1" parent="1">
          <mxGeometry x="462.5" y="490" width="225" height="70" as="geometry" />
        </mxCell>
        <mxCell id="HHy9b7S9J5ZC9o9ud-Px-6" value="&lt;div style=&quot;color: rgb(255 , 255 , 255) ; background-color: rgb(25 , 53 , 73) ; font-family: &amp;#34;cascadia code&amp;#34; , &amp;#34;consolas&amp;#34; , &amp;#34;courier new&amp;#34; , monospace , &amp;#34;consolas&amp;#34; , &amp;#34;courier new&amp;#34; , monospace ; font-size: 25px ; line-height: 34px&quot;&gt;&lt;div style=&quot;font-family: &amp;#34;cascadia code&amp;#34; , &amp;#34;consolas&amp;#34; , &amp;#34;courier new&amp;#34; , monospace , &amp;#34;consolas&amp;#34; , &amp;#34;courier new&amp;#34; , monospace ; line-height: 34px&quot;&gt;&lt;div style=&quot;font-family: &amp;#34;cascadia code&amp;#34; , &amp;#34;consolas&amp;#34; , &amp;#34;courier new&amp;#34; , monospace , &amp;#34;consolas&amp;#34; , &amp;#34;courier new&amp;#34; , monospace ; line-height: 34px&quot;&gt;&lt;span style=&quot;color: #80ffbb&quot;&gt;IngredientList&lt;/span&gt;&lt;/div&gt;&lt;/div&gt;&lt;/div&gt;" style="rounded=0;whiteSpace=wrap;html=1;fillColor=#ffe6cc;strokeColor=#d79b00;" vertex="1" parent="1">
          <mxGeometry x="150" y="590" width="220" height="70" as="geometry" />
        </mxCell>
        <mxCell id="HHy9b7S9J5ZC9o9ud-Px-7" value="&lt;div style=&quot;color: rgb(255 , 255 , 255) ; background-color: rgb(25 , 53 , 73) ; font-family: &amp;#34;cascadia code&amp;#34; , &amp;#34;consolas&amp;#34; , &amp;#34;courier new&amp;#34; , monospace , &amp;#34;consolas&amp;#34; , &amp;#34;courier new&amp;#34; , monospace ; font-size: 25px ; line-height: 34px&quot;&gt;&lt;div style=&quot;font-family: &amp;#34;cascadia code&amp;#34; , &amp;#34;consolas&amp;#34; , &amp;#34;courier new&amp;#34; , monospace , &amp;#34;consolas&amp;#34; , &amp;#34;courier new&amp;#34; , monospace ; line-height: 34px&quot;&gt;&lt;div style=&quot;font-family: &amp;#34;cascadia code&amp;#34; , &amp;#34;consolas&amp;#34; , &amp;#34;courier new&amp;#34; , monospace , &amp;#34;consolas&amp;#34; , &amp;#34;courier new&amp;#34; , monospace ; line-height: 34px&quot;&gt;&lt;div style=&quot;font-family: &amp;#34;cascadia code&amp;#34; , &amp;#34;consolas&amp;#34; , &amp;#34;courier new&amp;#34; , monospace , &amp;#34;consolas&amp;#34; , &amp;#34;courier new&amp;#34; , monospace ; line-height: 34px&quot;&gt;&lt;span style=&quot;color: #ffc600&quot;&gt;Ingredient&lt;/span&gt;&lt;/div&gt;&lt;/div&gt;&lt;/div&gt;&lt;/div&gt;" style="rounded=0;whiteSpace=wrap;html=1;fillColor=#ffe6cc;strokeColor=#d79b00;" vertex="1" parent="1">
          <mxGeometry x="150" y="700" width="220" height="70" as="geometry" />
        </mxCell>
        <mxCell id="HHy9b7S9J5ZC9o9ud-Px-9" value="" style="endArrow=classic;html=1;strokeWidth=4;" edge="1" parent="1">
          <mxGeometry width="50" height="50" relative="1" as="geometry">
            <mxPoint x="260" y="450" as="sourcePoint" />
            <mxPoint x="260" y="487" as="targetPoint" />
          </mxGeometry>
        </mxCell>
        <mxCell id="HHy9b7S9J5ZC9o9ud-Px-12" value="" style="endArrow=classic;html=1;strokeWidth=4;exitX=0.5;exitY=1;exitDx=0;exitDy=0;" edge="1" parent="1" source="HHy9b7S9J5ZC9o9ud-Px-4">
          <mxGeometry width="50" height="50" relative="1" as="geometry">
            <mxPoint x="260" y="570" as="sourcePoint" />
            <mxPoint x="259.5" y="590" as="targetPoint" />
          </mxGeometry>
        </mxCell>
        <mxCell id="HHy9b7S9J5ZC9o9ud-Px-13" value="" style="endArrow=classic;html=1;strokeWidth=4;" edge="1" parent="1">
          <mxGeometry width="50" height="50" relative="1" as="geometry">
            <mxPoint x="259.5" y="660" as="sourcePoint" />
            <mxPoint x="259.5" y="697" as="targetPoint" />
          </mxGeometry>
        </mxCell>
        <mxCell id="HHy9b7S9J5ZC9o9ud-Px-14" value="" style="endArrow=classic;html=1;strokeWidth=4;" edge="1" parent="1">
          <mxGeometry width="50" height="50" relative="1" as="geometry">
            <mxPoint x="580" y="453" as="sourcePoint" />
            <mxPoint x="580" y="490" as="targetPoint" />
          </mxGeometry>
        </mxCell>
        <mxCell id="HHy9b7S9J5ZC9o9ud-Px-18" value="" style="endArrow=classic;startArrow=classic;html=1;strokeWidth=4;exitX=0.539;exitY=-0.043;exitDx=0;exitDy=0;exitPerimeter=0;entryX=0.5;entryY=0;entryDx=0;entryDy=0;" edge="1" parent="1" source="HHy9b7S9J5ZC9o9ud-Px-2" target="HHy9b7S9J5ZC9o9ud-Px-3">
          <mxGeometry width="50" height="50" relative="1" as="geometry">
            <mxPoint x="390" y="540" as="sourcePoint" />
            <mxPoint x="440" y="490" as="targetPoint" />
            <Array as="points">
              <mxPoint x="267" y="350" />
              <mxPoint x="410" y="330" />
              <mxPoint x="575" y="350" />
            </Array>
          </mxGeometry>
        </mxCell>
        <mxCell id="HHy9b7S9J5ZC9o9ud-Px-19" value="&lt;font style=&quot;font-size: 40px&quot;&gt;Recipe-App-TreeStructure&lt;/font&gt;" style="text;html=1;strokeColor=none;fillColor=none;align=center;verticalAlign=middle;whiteSpace=wrap;rounded=0;" vertex="1" parent="1">
          <mxGeometry x="120" y="40" width="630" height="90" as="geometry" />
        </mxCell>
      </root>
    </mxGraphModel>
  </diagram>
</mxfile>
